Patient4_TMGait_0pt4_03_left_08_GRF.mot
version=1
nRows=64
nColumns=19
inDegrees=no
endheader
time	F1x	F1y	F1z	M1x	M1y	M1z	F2x	F2y	F2z	M2x	M2y	M2z	EC1x	EC1y	EC1z	EC2x	EC2y	EC2z
10.04	13.5012	10.6028	8.9468	-2.9766	-5.7013	7.6981	-27.4595	720.6761	-60.8854	251.7149	76.517	799.6806	-0.0592	0.0182	-0.0073	-0.0462	0.0165	0.9585
10.0537	9.0433	7.7118	6.0149	-2.2163	-3.8507	5.8812	-27.293	716.9216	-63.9527	249.023	79.147	791.2915	-0.0592	0.0182	-0.0073	-0.0462	0.0165	0.9585
10.0674	5.2721	5.2604	3.5406	-1.5671	-2.288	4.3137	-26.6631	713.0608	-66.4595	246.2669	81.0361	782.7651	-0.0592	0.0182	-0.0073	-0.0462	0.0165	0.9585
10.0811	2.4086	3.4025	1.6597	-1.0723	-1.1001	3.1236	-25.562	710.2636	-68.3382	243.9608	82.1353	775.4937	-0.0592	0.0182	-0.0073	-0.0462	0.0165	0.9585
10.0949	0.42415	2.1349	0.36112	-0.73381	-0.28482	2.3271	-24.0232	709.6747	-69.6435	242.5895	82.5347	770.6966	-0.0592	0.0182	-0.0073	-0.0462	0.0165	0.9585
10.1086	-0.80899	1.3595	-0.4327	-0.52756	0.20373	1.8529	-22.0785	712.0611	-70.4902	242.4841	82.3751	769.099	-0.0592	0.0182	-0.0073	-0.0462	0.0165	0.9585
10.1223	-1.4762	0.94894	-0.84683	-0.41839	0.44516	1.6176	-19.7513	717.6951	-70.963	243.785	81.7544	770.8674	-0.0592	0.0182	-0.0073	-0.0462	0.0165	0.9585
10.136	-1.7541	0.74101	-0.98859	-0.35738	0.50574	1.4864	-17.0484	726.3281	-71.1208	246.4327	80.7369	775.6242	-0.0592	0.0182	-0.0073	-0.0462	0.0165	0.9585
10.1497	-1.7985	0.58214	-0.96342	-0.29755	0.4515	1.3233	-14.0074	737.2278	-70.9801	250.1812	79.3543	782.5303	-0.0592	0.0182	-0.0073	-0.0462	0.0165	0.9585
10.1634	-1.7451	0.33012	-0.83641	-0.19435	0.3142	1.0024	-10.7008	749.2704	-70.5338	254.6301	77.6227	790.3906	-0.0592	0.0182	-0.0073	-0.0462	0.0165	0.9585
10.1771	-1.6635	-0.15542	-0.66637	-0.0053964	0.1333	0.37694	-7.2142	761.1403	-69.7724	259.2937	75.5565	797.8581	-0.0592	0.0182	-0.0073	-0.0462	0.0165	0.9585
10.1909	-1.6072	-0.96921	-0.4856	0.30156	-0.068004	-0.64519	-3.6352	771.5024	-68.7004	263.6625	73.1825	803.6098	-0.0592	0.0182	-0.0073	-0.0462	0.0165	0.9585
10.2046	-1.57	-2.1659	-0.32206	0.74426	-0.2531	-2.1293	-0.029384	779.1946	-67.3459	267.276	70.5385	806.5232	-0.0592	0.0182	-0.0073	-0.0462	0.0165	0.9585
10.2183	-1.5185	-3.7275	-0.19771	1.3156	-0.38152	-4.0469	3.5515	783.4602	-65.7405	269.8057	67.6518	805.913	-0.0592	0.0182	-0.0073	-0.0462	0.0165	0.9585
10.232	-1.385	-5.5164	-0.14046	1.9648	-0.39578	-6.2259	7.0811	783.9898	-63.959	271.0728	64.5787	801.5556	-0.0592	0.0182	-0.0073	-0.0462	0.0165	0.9585
10.2457	-1.0564	-7.2197	-0.18471	2.5775	-0.21907	-8.302	10.5392	780.8573	-62.1416	271.0332	61.4434	793.6233	-0.0592	0.0182	-0.0073	-0.0462	0.0165	0.9585
10.2594	-0.41463	-8.2827	-0.37312	2.9535	0.2399	-9.6133	13.9195	774.4971	-60.4985	269.7746	58.4421	782.6499	-0.0592	0.0182	-0.0073	-0.0462	0.0165	0.9585
10.2731	0.69589	-7.8585	-0.75731	2.7847	1.0908	-9.164	17.2257	765.6505	-59.228	267.5078	55.7716	769.4517	-0.0592	0.0182	-0.0073	-0.0462	0.0165	0.9585
10.2869	2.4024	-4.7553	-1.3755	1.6398	2.4215	-5.542	20.4187	755.1866	-58.4769	264.5073	53.6049	754.9728	-0.0592	0.0182	-0.0073	-0.0462	0.0165	0.9585
10.3006	4.7853	2.5338	-2.2526	-1.0263	4.2862	3.0289	23.4205	743.8575	-58.2942	261.0291	52.0381	740.0334	-0.0592	0.0182	-0.0073	-0.0462	0.0165	0.9585
10.3143	7.8106	15.7001	-3.3623	-5.8233	6.641	18.5406	26.0907	732.1292	-58.6248	257.2435	51.0853	725.1795	-0.0592	0.0182	-0.0073	-0.0462	0.0165	0.9585
10.328	11.2268	36.3571	-4.6083	-13.3265	9.277	42.9039	28.2361	720.0166	-59.3002	253.172	50.666	710.5185	-0.0592	0.0182	-0.0073	-0.0462	0.0165	0.9585
10.3417	14.4809	65.53	-5.7756	-23.8961	11.7352	77.3252	29.6243	707.0138	-60.0753	248.6579	50.6336	695.6479	-0.0592	0.0182	-0.0073	-0.0462	0.0165	0.9585
10.3554	16.5802	102.8959	-6.4852	-37.4025	13.2136	121.4294	30.0193	692.1873	-60.6545	243.3978	50.7895	679.7384	-0.0592	0.0182	-0.0073	-0.0462	0.0165	0.9585
10.3691	16.218	145.9347	-6.2024	-52.9181	12.6233	172.2507	29.2818	674.4119	-60.7242	237.0266	50.8854	661.7226	-0.0592	0.0182	-0.0073	-0.0462	0.0165	0.9585
10.3829	12.784	189.8042	-4.228	-68.6584	8.9496	224.071	27.4451	652.8124	-60.012	229.2732	50.6512	640.7004	-0.0592	0.0182	-0.0073	-0.0462	0.0165	0.9585
10.3966	7.4083	229.4582	-0.074601	-82.7738	2.1123	270.8391	24.8116	627.203	-58.3963	220.112	49.8709	616.3316	-0.0592	0.0182	-0.0073	-0.0462	0.0165	0.9585
10.4103	1.4749	262.7478	5.5774	-94.5245	-6.5831	309.7582	21.8993	598.2086	-55.9872	209.79	48.4702	588.978	-0.0592	0.0182	-0.0073	-0.0462	0.0165	0.9585
10.424	-4.2818	291.0393	12.0724	-104.4452	-16.0694	342.2752	19.2838	566.7687	-53.0864	198.6501	46.5274	559.2853	-0.0592	0.0182	-0.0073	-0.0462	0.0165	0.9585
10.4377	-9.5558	317.4381	18.4855	-113.7202	-25.1945	371.9581	17.3883	533.5877	-49.9318	186.9462	44.1132	527.7179	-0.0592	0.0182	-0.0073	-0.0462	0.0165	0.9585
10.4514	-14.2782	344.9031	24.3117	-123.4616	-33.3375	402.3024	16.3618	498.8649	-46.6158	174.7535	41.2525	494.3428	-0.0592	0.0182	-0.0073	-0.0462	0.0165	0.9585
10.4651	-18.3214	375.1837	29.0283	-134.3365	-39.8998	435.2917	16.0964	462.3619	-43.0495	161.9893	37.8874	458.8896	-0.0592	0.0182	-0.0073	-0.0462	0.0165	0.9585
10.4789	-21.5332	408.6232	32.6299	-146.4606	-44.8202	471.3195	16.2858	423.626	-39.1184	148.4885	34.0013	420.9441	-0.0592	0.0182	-0.0073	-0.0462	0.0165	0.9585
10.4926	-23.7204	444.6041	35.2226	-159.5809	-48.1925	509.6739	16.5127	382.3014	-34.7812	134.1099	29.6861	380.2196	-0.0592	0.0182	-0.0073	-0.0462	0.0165	0.9585
10.5063	-24.7659	482.1073	37.2762	-173.2782	-50.5204	549.2559	16.3368	338.4108	-30.1441	118.8372	25.1834	336.8187	-0.0592	0.0182	-0.0073	-0.0462	0.0165	0.9585
10.52	-24.7256	520.0943	39.1992	-187.1306	-52.3112	588.957	15.3979	292.5631	-25.3972	102.8589	20.7972	291.4088	-0.0592	0.0182	-0.0073	-0.0462	0.0165	0.9585
10.5337	-23.8255	557.7675	41.3794	-200.8192	-54.0862	627.9441	13.4858	246.0111	-20.775	86.5982	16.8309	245.2745	-0.0592	0.0182	-0.0073	-0.0462	0.0165	0.9585
10.5474	-22.4072	594.7505	43.9335	-214.1942	-56.1053	665.8961	10.6298	200.5442	-16.4904	70.6757	13.492	200.2127	-0.0592	0.0182	-0.0073	-0.0462	0.0165	0.9585
10.5611	-20.7287	630.8605	46.7584	-227.1956	-58.3543	702.6757	7.1413	158.1214	-12.6956	55.7807	10.8389	158.1555	-0.0592	0.0182	-0.0073	-0.0462	0.0165	0.9585
10.5749	-18.9886	665.7915	49.5843	-239.726	-60.6057	737.9948	3.4837	120.4008	-9.4705	42.5034	8.8018	120.7301	-0.0592	0.0182	-0.0073	-0.0462	0.0165	0.9585
10.5886	-17.3383	698.773	52.0936	-251.5243	-62.5593	771.0535	0.12611	88.3781	-6.833	31.2054	7.2441	88.9028	-0.0592	0.0182	-0.0073	-0.0462	0.0165	0.9585
10.6023	-15.8755	728.599	54.1152	-262.1588	-64.0483	800.5817	-2.6008	62.3119	-4.7468	21.9897	6.0225	62.9275	-0.0592	0.0182	-0.0073	-0.0462	0.0165	0.9585
10.616	-14.623	753.903	55.578	-271.1269	-64.9898	825.1291	-4.5258	41.8482	-3.1342	14.7446	5.0031	42.4679	-0.0592	0.0182	-0.0073	-0.0462	0.0165	0.9585
10.6297	-13.5064	773.4528	56.5866	-277.9654	-65.4507	843.3875	-5.5931	26.2845	-1.9144	9.234	4.0854	26.8512	-0.0592	0.0182	-0.0073	-0.0462	0.0165	0.9585
10.6434	-12.431	786.4406	57.2279	-282.3639	-65.484	854.5224	-5.8272	14.8368	-1.0126	5.186	3.205	15.3219	-0.0592	0.0182	-0.0073	-0.0462	0.0165	0.9585
10.6571	-11.3068	792.6504	57.6209	-284.226	-65.183	858.3571	-5.3162	6.7689	-0.38637	2.3413	2.3549	7.1496	-0.0592	0.0182	-0.0073	-0.0462	0.0165	0.9585
10.6709	-10.0626	792.4926	57.7818	-283.6916	-64.5495	855.3756	-4.3315	1.4841	0.0026043	0.48656	1.5914	1.7528	-0.0592	0.0182	-0.0073	-0.0462	0.0165	0.9585
10.6846	-8.6812	786.9236	57.7551	-281.1038	-63.6304	846.6531	-3.2344	-1.5787	0.20685	-0.57991	0.98494	-1.4097	-0.0592	0.0182	-0.0073	-0.0462	0.0165	0.9585
10.6983	-7.167	777.3102	57.554	-276.9642	-62.4535	833.6629	-2.2212	-3.0234	0.27119	-1.0723	0.55826	-2.9337	-0.0592	0.0182	-0.0073	-0.0462	0.0165	0.9585
10.712	-5.5578	765.3048	57.2634	-271.8829	-61.1309	818.1786	-1.4007	-3.3874	0.24971	-1.1835	0.29154	-3.3474	-0.0592	0.0182	-0.0073	-0.0462	0.0165	0.9585
10.7257	-3.8962	752.6298	56.9489	-266.5092	-59.7638	802.0216	-0.7972	-3.1256	0.18195	-1.075	0.14965	-3.121	-0.0592	0.0182	-0.0073	-0.0462	0.0165	0.9585
10.7394	-2.2404	740.881	56.6934	-261.4561	-58.4726	786.8578	-0.39611	-2.5614	0.097231	-0.86146	0.094353	-2.5857	-0.0592	0.0182	-0.0073	-0.0462	0.0165	0.9585
10.7531	-0.6368	731.39	56.4849	-257.2472	-57.2732	774.0561	-0.15942	-1.9035	0.010429	-0.61823	0.097072	-1.9476	-0.0592	0.0182	-0.0073	-0.0462	0.0165	0.9585
10.7669	0.89809	725.113	56.2745	-254.2689	-56.1253	764.5807	-0.040351	-1.288	-0.058598	-0.3934	0.12456	-1.3456	-0.0592	0.0182	-0.0073	-0.0462	0.0165	0.9585
10.7806	2.377	722.5747	55.9628	-252.7362	-54.9241	758.941	-0.016614	-0.76929	-0.10209	-0.20737	0.15858	-0.82546	-0.0592	0.0182	-0.0073	-0.0462	0.0165	0.9585
10.7943	3.8185	723.8283	55.4868	-252.667	-53.5941	757.1565	-0.038116	-0.36152	-0.1197	-0.064162	0.18489	-0.4115	-0.0592	0.0182	-0.0073	-0.0462	0.0165	0.9585
10.808	5.2002	728.5054	54.8321	-253.8997	-52.1208	758.842	-0.084845	-0.056796	-0.12391	0.040874	0.20761	-0.093339	-0.0592	0.0182	-0.0073	-0.0462	0.0165	0.9585
10.8217	6.5089	735.9176	54.0313	-256.1366	-50.5335	763.3101	-0.14858	0.15062	-0.11943	0.11163	0.22708	0.13203	-0.0592	0.0182	-0.0073	-0.0462	0.0165	0.9585
10.8354	7.7385	745.1851	53.1736	-258.9975	-48.9162	769.713	-0.21664	0.27182	-0.11245	0.15074	0.24785	0.26913	-0.0592	0.0182	-0.0073	-0.0462	0.0165	0.9585
10.8491	8.8593	755.3528	52.3681	-262.0712	-47.3839	777.1595	-0.29814	0.31208	-0.10462	0.15779	0.27366	0.32564	-0.0592	0.0182	-0.0073	-0.0462	0.0165	0.9585
10.8629	9.8248	765.4848	51.7538	-264.9568	-46.0935	784.7824	-0.39155	0.23623	-0.099754	0.12041	0.30578	0.25461	-0.0592	0.0182	-0.0073	-0.0462	0.0165	0.9585
10.8766	10.5904	774.7493	51.4409	-267.3064	-45.1808	791.8185	-0.50837	0.012368	-0.095636	0.025172	0.34439	0.017725	-0.0592	0.0182	-0.0073	-0.0462	0.0165	0.9585
10.8903	11.132	782.4542	51.5304	-268.8505	-44.7701	797.6208	-0.64412	-0.39882	-0.09829	-0.1443	0.39533	-0.43976	-0.0592	0.0182	-0.0073	-0.0462	0.0165	0.9585
10.904	11.4575	788.0763	52.0661	-269.4108	-44.9194	801.6749	-0.78668	-1.0468	-0.10877	-0.40662	0.45755	-1.1866	-0.0592	0.0182	-0.0073	-0.0462	0.0165	0.9585
